<svg style="fill: #98999b;" id="Icons" height="512" viewBox="0 0 74 74" width="512" xmlns="http://www.w3.org/2000/svg"><path d="m71 70.812h-68a1 1 0 0 1 -1-1v-65.624a1 1 0 0 1 2 0v64.624h67a1 1 0 0 1 0 2z"/><path d="m20.721 64.155h-7.89a1 1 0 0 1 -1-1v-32.592a1 1 0 0 1 1-1h7.89a1 1 0 0 1 1 1v32.592a1 1 0 0 1 -1 1zm-6.89-2h5.89v-30.592h-5.89z"/><path d="m35.167 64.155h-7.891a1 1 0 0 1 -1-1v-22.042a1 1 0 0 1 1-1h7.891a1 1 0 0 1 1 1v22.042a1 1 0 0 1 -1 1zm-6.891-2h5.891v-20.042h-5.891z"/><path d="m49.613 64.155h-7.891a1 1 0 0 1 -1-1v-34.655a1 1 0 0 1 1-1h7.891a1 1 0 0 1 1 1v34.655a1 1 0 0 1 -1 1zm-6.891-2h5.891v-32.655h-5.891z"/><path d="m64.059 64.155h-7.891a1 1 0 0 1 -1-1v-25.332a1 1 0 0 1 1-1h7.891a1 1 0 0 1 1 1v25.332a1 1 0 0 1 -1 1zm-6.891-2h5.891v-23.332h-5.891z"/><path d="m32.935 25.555a1 1 0 0 1 -.649-1.761l9.926-8.456a1 1 0 1 1 1.3 1.522l-9.926 8.456a.991.991 0 0 1 -.651.239z"/><path d="m57.205 21.563a.987.987 0 0 1 -.51-.141l-8.412-5a1 1 0 0 1 1.022-1.722l8.412 5a1 1 0 0 1 -.512 1.859z"/><path d="m27.307 26.147a1 1 0 0 1 -.5-.136l-7.538-4.411a1 1 0 1 1 1.009-1.727l7.535 4.409a1 1 0 0 1 -.506 1.863z"/><path d="m16.776 23.468a4.474 4.474 0 1 1 4.473-4.468 4.479 4.479 0 0 1 -4.473 4.468zm0-6.947a2.474 2.474 0 1 0 2.473 2.479 2.476 2.476 0 0 0 -2.473-2.479z"/><path d="m30.328 31.328a4.473 4.473 0 1 1 4.472-4.473 4.479 4.479 0 0 1 -4.472 4.473zm0-6.946a2.473 2.473 0 1 0 2.472 2.473 2.475 2.475 0 0 0 -2.472-2.473z"/><path d="m45.667 18.532a4.473 4.473 0 1 1 4.474-4.473 4.479 4.479 0 0 1 -4.474 4.473zm0-6.946a2.473 2.473 0 1 0 2.474 2.473 2.476 2.476 0 0 0 -2.474-2.473z"/><path d="m60.114 26.941a4.473 4.473 0 1 1 4.472-4.473 4.478 4.478 0 0 1 -4.472 4.473zm0-6.946a2.473 2.473 0 1 0 2.472 2.473 2.475 2.475 0 0 0 -2.472-2.468z"/><path d="m67.893 64.155h-59.135a1 1 0 1 1 0-2h59.135a1 1 0 0 1 0 2z"/></svg>